<svg id="Radish" viewBox="0 0 64 64" xmlns="http://www.w3.org/2000/svg"><path d="m50.02 11.38c-1.23-1.76-3.06-2.93-5.17-3.3-1.71-.3-3.43-.03-4.95.73-.57-3.85-3.89-6.82-7.9-6.82s-7.33 2.97-7.9 6.82c-1.52-.77-3.24-1.03-4.95-.73-2.11.37-3.94 1.54-5.17 3.29-2.53 3.61-1.65 8.6 1.96 11.14 2.41 1.69 6.08 3.28 9.35 4.06.15.04.32.05.47.05 1.1 0 2-.9 2-2 0-.96-.68-1.76-1.58-1.96-2.76-.66-5.94-2.04-7.93-3.43-1.8-1.27-2.24-3.76-.98-5.57.61-.88 1.53-1.46 2.58-1.65s2.11.05 2.99.67c.49.34 1.02.77 1.57 1.26.9 5.17 3.34 12.03 7.6 12.03s6.69-6.85 7.6-12.02c.55-.49 1.09-.94 1.59-1.29.87-.61 1.93-.85 2.98-.67s1.97.77 2.58 1.65c1.26 1.8.82 4.3-.98 5.56-1.98 1.39-5.14 2.76-7.89 3.42-.93.17-1.63.99-1.63 1.97 0 1.1.9 2 2 2 .16 0 .31-.02.46-.05 3.26-.77 6.93-2.37 9.35-4.06 3.61-2.53 4.49-7.53 1.96-11.13zm-17.99 10.62c-1.14-.26-3.17-4.88-3.82-9.36 0-.05 0-.1-.02-.15-.12-.85-.19-1.69-.19-2.5 0-2.21 1.79-4 4-4s4 1.79 4 4c0 .8-.07 1.65-.19 2.49-.01.06-.01.11-.02.17-.65 4.47-2.67 9.08-3.76 9.34z"/><path d="m32 62c-.21 0-.43-.03-.63-.1-.91-.3-22.37-7.62-22.37-21.9 0-10.6 9.46-18 23-18s23 7.4 23 18c0 14.28-21.45 21.59-22.37 21.9-.21.07-.42.1-.63.1zm0-36c-11.19 0-19 5.76-19 14 0 10.25 15.63 16.62 19 17.88 3.37-1.26 19-7.65 19-17.88 0-8.24-7.81-14-19-14z"/></svg>